<svg width="212" height="54" viewBox="0 0 212 54" fill="none" xmlns="http://www.w3.org/2000/svg">
<rect width="212" height="54" rx="27" fill="#1565D8"/>
<g clip-path="url(#clip0)">
<path d="M30.5742 33H27.8496V22.418H24.3604V20.1504H34.0635V22.418H30.5742V33ZM41.3145 22.9893C41.6777 22.9893 41.9795 23.0156 42.2197 23.0684L42.0176 25.582C41.8008 25.5234 41.5371 25.4941 41.2266 25.4941C40.3711 25.4941 39.7031 25.7139 39.2227 26.1533C38.748 26.5928 38.5107 27.208 38.5107 27.999V33H35.8301V23.1738H37.8604L38.2559 24.8262H38.3877C38.6924 24.2754 39.1025 23.833 39.6182 23.499C40.1396 23.1592 40.7051 22.9893 41.3145 22.9893ZM42.5977 23.1738H45.5332L47.3877 28.7021C47.5459 29.1826 47.6543 29.751 47.7129 30.4072H47.7656C47.8301 29.8037 47.9561 29.2354 48.1436 28.7021L49.9629 23.1738H52.8369L48.6797 34.2568C48.2988 35.2822 47.7539 36.0498 47.0449 36.5596C46.3418 37.0693 45.5186 37.3242 44.5752 37.3242C44.1123 37.3242 43.6582 37.2744 43.2129 37.1748V35.0479C43.5352 35.124 43.8867 35.1621 44.2676 35.1621C44.7422 35.1621 45.1553 35.0156 45.5068 34.7227C45.8643 34.4355 46.1426 33.999 46.3418 33.4131L46.5 32.9297L42.5977 23.1738ZM58.8135 20.6338C58.8135 19.7607 59.2998 19.3242 60.2725 19.3242C61.2451 19.3242 61.7314 19.7607 61.7314 20.6338C61.7314 21.0498 61.6084 21.375 61.3623 21.6094C61.1221 21.8379 60.7588 21.9521 60.2725 21.9521C59.2998 21.9521 58.8135 21.5127 58.8135 20.6338ZM61.6084 33H58.9277V23.1738H61.6084V33ZM68.5693 31.04C69.0381 31.04 69.6006 30.9375 70.2568 30.7324V32.7275C69.5889 33.0264 68.7686 33.1758 67.7959 33.1758C66.7236 33.1758 65.9414 32.9062 65.4492 32.3672C64.9629 31.8223 64.7197 31.0078 64.7197 29.9238V25.1865H63.4365V24.0527L64.9131 23.1562L65.6865 21.082H67.4004V23.1738H70.1514V25.1865H67.4004V29.9238C67.4004 30.3047 67.5059 30.5859 67.7168 30.7676C67.9336 30.9492 68.2178 31.04 68.5693 31.04ZM79.0635 28.0693C79.0635 29.042 79.2217 29.7773 79.5381 30.2754C79.8604 30.7734 80.3818 31.0225 81.1025 31.0225C81.8174 31.0225 82.3301 30.7764 82.6406 30.2842C82.957 29.7861 83.1152 29.0479 83.1152 28.0693C83.1152 27.0967 82.957 26.3672 82.6406 25.8809C82.3242 25.3945 81.8057 25.1514 81.085 25.1514C80.3701 25.1514 79.8545 25.3945 79.5381 25.8809C79.2217 26.3613 79.0635 27.0908 79.0635 28.0693ZM85.8574 28.0693C85.8574 29.6689 85.4355 30.9199 84.5918 31.8223C83.748 32.7246 82.5732 33.1758 81.0674 33.1758C80.124 33.1758 79.292 32.9707 78.5713 32.5605C77.8506 32.1445 77.2969 31.5498 76.9102 30.7764C76.5234 30.0029 76.3301 29.1006 76.3301 28.0693C76.3301 26.4639 76.749 25.2158 77.5869 24.3252C78.4248 23.4346 79.6025 22.9893 81.1201 22.9893C82.0635 22.9893 82.8955 23.1943 83.6162 23.6045C84.3369 24.0146 84.8906 24.6035 85.2773 25.3711C85.6641 26.1387 85.8574 27.0381 85.8574 28.0693ZM95.0332 33L94.6729 31.7432H94.5322C94.2451 32.2002 93.8379 32.5547 93.3105 32.8066C92.7832 33.0527 92.1826 33.1758 91.5088 33.1758C90.3545 33.1758 89.4844 32.8682 88.8984 32.2529C88.3125 31.6318 88.0195 30.7412 88.0195 29.5811V23.1738H90.7002V28.9131C90.7002 29.6221 90.8262 30.1553 91.0781 30.5127C91.3301 30.8643 91.7314 31.04 92.2822 31.04C93.0322 31.04 93.5742 30.791 93.9082 30.293C94.2422 29.7891 94.4092 28.957 94.4092 27.7969V23.1738H97.0898V33H95.0332ZM104.042 31.04C104.511 31.04 105.073 30.9375 105.729 30.7324V32.7275C105.062 33.0264 104.241 33.1758 103.269 33.1758C102.196 33.1758 101.414 32.9062 100.922 32.3672C100.436 31.8223 100.192 31.0078 100.192 29.9238V25.1865H98.9092V24.0527L100.386 23.1562L101.159 21.082H102.873V23.1738H105.624V25.1865H102.873V29.9238C102.873 30.3047 102.979 30.5859 103.189 30.7676C103.406 30.9492 103.69 31.04 104.042 31.04ZM117.832 25.1865H115.512V33H112.831V25.1865H111.354V23.8945L112.831 23.1738V22.4531C112.831 21.334 113.106 20.5166 113.657 20.001C114.208 19.4854 115.09 19.2275 116.303 19.2275C117.229 19.2275 118.052 19.3652 118.772 19.6406L118.087 21.6094C117.548 21.4395 117.05 21.3545 116.593 21.3545C116.212 21.3545 115.937 21.4688 115.767 21.6973C115.597 21.9199 115.512 22.207 115.512 22.5586V23.1738H117.832V25.1865ZM124.863 22.9893C125.227 22.9893 125.528 23.0156 125.769 23.0684L125.566 25.582C125.35 25.5234 125.086 25.4941 124.775 25.4941C123.92 25.4941 123.252 25.7139 122.771 26.1533C122.297 26.5928 122.06 27.208 122.06 27.999V33H119.379V23.1738H121.409L121.805 24.8262H121.937C122.241 24.2754 122.651 23.833 123.167 23.499C123.688 23.1592 124.254 22.9893 124.863 22.9893ZM131.622 24.8965C131.054 24.8965 130.608 25.0781 130.286 25.4414C129.964 25.7988 129.779 26.3086 129.732 26.9707H133.494C133.482 26.3086 133.31 25.7988 132.976 25.4414C132.642 25.0781 132.19 24.8965 131.622 24.8965ZM132 33.1758C130.418 33.1758 129.182 32.7393 128.291 31.8662C127.4 30.9932 126.955 29.7568 126.955 28.1572C126.955 26.5107 127.365 25.2393 128.186 24.3428C129.012 23.4404 130.151 22.9893 131.604 22.9893C132.993 22.9893 134.074 23.3848 134.848 24.1758C135.621 24.9668 136.008 26.0596 136.008 27.4541V28.7549H129.671C129.7 29.5166 129.926 30.1113 130.348 30.5391C130.77 30.9668 131.361 31.1807 132.123 31.1807C132.715 31.1807 133.274 31.1191 133.802 30.9961C134.329 30.873 134.88 30.6768 135.454 30.4072V32.4814C134.985 32.7158 134.484 32.8887 133.951 33C133.418 33.1172 132.768 33.1758 132 33.1758ZM142.257 24.8965C141.688 24.8965 141.243 25.0781 140.921 25.4414C140.599 25.7988 140.414 26.3086 140.367 26.9707H144.129C144.117 26.3086 143.944 25.7988 143.61 25.4414C143.276 25.0781 142.825 24.8965 142.257 24.8965ZM142.635 33.1758C141.053 33.1758 139.816 32.7393 138.926 31.8662C138.035 30.9932 137.59 29.7568 137.59 28.1572C137.59 26.5107 138 25.2393 138.82 24.3428C139.646 23.4404 140.786 22.9893 142.239 22.9893C143.628 22.9893 144.709 23.3848 145.482 24.1758C146.256 24.9668 146.643 26.0596 146.643 27.4541V28.7549H140.306C140.335 29.5166 140.561 30.1113 140.982 30.5391C141.404 30.9668 141.996 31.1807 142.758 31.1807C143.35 31.1807 143.909 31.1191 144.437 30.9961C144.964 30.873 145.515 30.6768 146.089 30.4072V32.4814C145.62 32.7158 145.119 32.8887 144.586 33C144.053 33.1172 143.402 33.1758 142.635 33.1758Z" fill="white"/>
<path d="M180.57 22.582C180.297 22.8555 180.324 23.2656 180.57 23.5391L183.879 26.6562H176.031C175.648 26.6562 175.375 26.957 175.375 27.3125V28.1875C175.375 28.5703 175.648 28.8438 176.031 28.8438H183.879L180.57 31.9883C180.324 32.2617 180.324 32.6719 180.57 32.9453L181.172 33.5469C181.445 33.793 181.855 33.793 182.102 33.5469L187.434 28.2148C187.68 27.9688 187.68 27.5586 187.434 27.2852L182.102 21.9805C181.855 21.7344 181.445 21.7344 181.172 21.9805L180.57 22.582Z" fill="white"/>
</g>
<defs>
<clipPath id="clip0">
<rect width="164" height="24" fill="white" transform="translate(24 14)"/>
</clipPath>
</defs>
</svg>
