<svg width="111" height="20" viewBox="0 0 111 20" fill="none" xmlns="http://www.w3.org/2000/svg">
<path d="M2.4917 16V5.29199H4.76221V14.125H9.10547V16H2.4917ZM14.1885 9.24707C13.7148 9.24707 13.3438 9.39844 13.0752 9.70117C12.8066 9.99902 12.6528 10.4238 12.6138 10.9756H15.7485C15.7388 10.4238 15.5947 9.99902 15.3164 9.70117C15.0381 9.39844 14.6621 9.24707 14.1885 9.24707ZM14.5034 16.1465C13.1851 16.1465 12.1548 15.7827 11.4126 15.0552C10.6704 14.3276 10.2993 13.2974 10.2993 11.9644C10.2993 10.5923 10.6411 9.53271 11.3247 8.78564C12.0132 8.03369 12.9629 7.65771 14.1738 7.65771C15.3311 7.65771 16.2319 7.9873 16.8765 8.64648C17.521 9.30566 17.8433 10.2163 17.8433 11.3784V12.4624H12.5625C12.5869 13.0972 12.7749 13.5928 13.1265 13.9492C13.478 14.3057 13.9712 14.4839 14.606 14.4839C15.0991 14.4839 15.5654 14.4326 16.0049 14.3301C16.4443 14.2275 16.9033 14.064 17.3818 13.8394V15.5679C16.9912 15.7632 16.5737 15.9072 16.1294 16C15.6851 16.0977 15.1431 16.1465 14.5034 16.1465ZM24.8599 16L24.4277 14.8867H24.3691C23.9932 15.3604 23.605 15.6899 23.2046 15.8755C22.8091 16.0562 22.2915 16.1465 21.6519 16.1465C20.8657 16.1465 20.2456 15.9219 19.7915 15.4727C19.3423 15.0234 19.1177 14.3838 19.1177 13.5537C19.1177 12.6846 19.4204 12.0449 20.0259 11.6348C20.6362 11.2197 21.5542 10.9902 22.7798 10.9463L24.2007 10.9023V10.5435C24.2007 9.71338 23.7759 9.29834 22.9263 9.29834C22.272 9.29834 21.5029 9.49609 20.6191 9.8916L19.8794 8.38281C20.8218 7.88965 21.8667 7.64307 23.0142 7.64307C24.1128 7.64307 24.9551 7.88232 25.541 8.36084C26.127 8.83936 26.4199 9.56689 26.4199 10.5435V16H24.8599ZM24.2007 12.2061L23.3364 12.2354C22.687 12.2549 22.2036 12.3721 21.8862 12.5869C21.5688 12.8018 21.4102 13.1289 21.4102 13.5684C21.4102 14.1982 21.7715 14.5132 22.4941 14.5132C23.0117 14.5132 23.4243 14.3643 23.7319 14.0664C24.0444 13.7686 24.2007 13.373 24.2007 12.8799V12.2061ZM33.2974 7.65771C33.6001 7.65771 33.8516 7.67969 34.0518 7.72363L33.8833 9.81836C33.7026 9.76953 33.4829 9.74512 33.2241 9.74512C32.5112 9.74512 31.9546 9.92822 31.5542 10.2944C31.1587 10.6606 30.9609 11.1733 30.9609 11.8325V16H28.7271V7.81152H30.4189L30.7485 9.18848H30.8584C31.1123 8.72949 31.4541 8.36084 31.8838 8.08252C32.3184 7.79932 32.7896 7.65771 33.2974 7.65771ZM43.0972 16H40.8633V11.2173C40.8633 10.6265 40.7583 10.1846 40.5483 9.8916C40.3384 9.59375 40.0039 9.44482 39.5449 9.44482C38.9199 9.44482 38.4683 9.65479 38.1899 10.0747C37.9116 10.4897 37.7725 11.1807 37.7725 12.1475V16H35.5386V7.81152H37.2451L37.5454 8.85889H37.6699C37.9189 8.46338 38.2607 8.16553 38.6953 7.96533C39.1348 7.76025 39.6328 7.65771 40.1895 7.65771C41.1416 7.65771 41.8643 7.9165 42.3574 8.43408C42.8506 8.94678 43.0972 9.68896 43.0972 10.6606V16ZM56.625 16H54.3911V11.2173C54.3911 10.6265 54.291 10.1846 54.0908 9.8916C53.8955 9.59375 53.5854 9.44482 53.1606 9.44482C52.5894 9.44482 52.1743 9.65479 51.9155 10.0747C51.6567 10.4946 51.5273 11.1855 51.5273 12.1475V16H49.2935V7.81152H51L51.3003 8.85889H51.4248C51.6445 8.48291 51.9619 8.18994 52.377 7.97998C52.792 7.76514 53.2681 7.65771 53.8052 7.65771C55.0308 7.65771 55.8608 8.05811 56.2954 8.85889H56.4932C56.7129 8.47803 57.0352 8.18262 57.46 7.97266C57.8896 7.7627 58.373 7.65771 58.9102 7.65771C59.8379 7.65771 60.5386 7.89697 61.0122 8.37549C61.4907 8.84912 61.73 9.61084 61.73 10.6606V16H59.4888V11.2173C59.4888 10.6265 59.3887 10.1846 59.1885 9.8916C58.9932 9.59375 58.6831 9.44482 58.2583 9.44482C57.7114 9.44482 57.3013 9.64014 57.0278 10.0308C56.7593 10.4214 56.625 11.0415 56.625 11.8911V16ZM65.8096 11.8911C65.8096 12.7017 65.9414 13.3145 66.2051 13.7295C66.4736 14.1445 66.9082 14.3521 67.5088 14.3521C68.1045 14.3521 68.5317 14.147 68.7905 13.7368C69.0542 13.3218 69.186 12.7065 69.186 11.8911C69.186 11.0806 69.0542 10.4727 68.7905 10.0674C68.5269 9.66211 68.0947 9.45947 67.4941 9.45947C66.8984 9.45947 66.4688 9.66211 66.2051 10.0674C65.9414 10.4678 65.8096 11.0757 65.8096 11.8911ZM71.4712 11.8911C71.4712 13.2241 71.1196 14.2666 70.4165 15.0186C69.7134 15.7705 68.7344 16.1465 67.4795 16.1465C66.6934 16.1465 66 15.9756 65.3994 15.6338C64.7988 15.2871 64.3374 14.7915 64.0151 14.147C63.6929 13.5024 63.5317 12.7505 63.5317 11.8911C63.5317 10.5532 63.8809 9.51318 64.5791 8.771C65.2773 8.02881 66.2588 7.65771 67.5234 7.65771C68.3096 7.65771 69.0029 7.82861 69.6035 8.17041C70.2041 8.51221 70.6655 9.00293 70.9878 9.64258C71.3101 10.2822 71.4712 11.0317 71.4712 11.8911ZM77.8872 7.65771C78.1899 7.65771 78.4414 7.67969 78.6416 7.72363L78.4731 9.81836C78.2925 9.76953 78.0728 9.74512 77.814 9.74512C77.1011 9.74512 76.5444 9.92822 76.144 10.2944C75.7485 10.6606 75.5508 11.1733 75.5508 11.8325V16H73.3169V7.81152H75.0088L75.3384 9.18848H75.4482C75.7021 8.72949 76.0439 8.36084 76.4736 8.08252C76.9082 7.79932 77.3794 7.65771 77.8872 7.65771ZM83.5195 9.24707C83.0459 9.24707 82.6748 9.39844 82.4062 9.70117C82.1377 9.99902 81.9839 10.4238 81.9448 10.9756H85.0796C85.0698 10.4238 84.9258 9.99902 84.6475 9.70117C84.3691 9.39844 83.9932 9.24707 83.5195 9.24707ZM83.8345 16.1465C82.5161 16.1465 81.4858 15.7827 80.7437 15.0552C80.0015 14.3276 79.6304 13.2974 79.6304 11.9644C79.6304 10.5923 79.9722 9.53271 80.6558 8.78564C81.3442 8.03369 82.2939 7.65771 83.5049 7.65771C84.6621 7.65771 85.563 7.9873 86.2075 8.64648C86.8521 9.30566 87.1743 10.2163 87.1743 11.3784V12.4624H81.8936C81.918 13.0972 82.106 13.5928 82.4575 13.9492C82.8091 14.3057 83.3022 14.4839 83.937 14.4839C84.4302 14.4839 84.8965 14.4326 85.3359 14.3301C85.7754 14.2275 86.2344 14.064 86.7129 13.8394V15.5679C86.3223 15.7632 85.9048 15.9072 85.4604 16C85.0161 16.0977 84.4741 16.1465 83.8345 16.1465Z" fill="#1565D8"/>
<path d="M103.57 5.58203C103.297 5.85547 103.324 6.26562 103.57 6.53906L106.879 9.65625H99.0312C98.6484 9.65625 98.375 9.95703 98.375 10.3125V11.1875C98.375 11.5703 98.6484 11.8438 99.0312 11.8438H106.879L103.57 14.9883C103.324 15.2617 103.324 15.6719 103.57 15.9453L104.172 16.5469C104.445 16.793 104.855 16.793 105.102 16.5469L110.434 11.2148C110.68 10.9688 110.68 10.5586 110.434 10.2852L105.102 4.98047C104.855 4.73438 104.445 4.73438 104.172 4.98047L103.57 5.58203Z" fill="#1565D8"/>
</svg>
