<svg width="64" height="64" viewBox="0 0 64 64" fill="none" xmlns="http://www.w3.org/2000/svg">
<g opacity="0.06">
<rect width="64" height="64" rx="16" fill="#1565D8"/>
</g>
<path d="M47.47 30.0901H42.92C40.4071 30.0901 38.37 32.1272 38.37 34.6401C38.37 37.153 40.4071 39.1901 42.92 39.1901H47.47V41.9201C47.47 44.433 45.4329 46.4701 42.92 46.4701H17.44C15.9323 46.4701 14.71 45.2478 14.71 43.7401V23.7201C14.71 23.2175 15.1174 22.8101 15.62 22.8101H42.92C45.4329 22.8101 47.47 24.8472 47.47 27.3601V30.0901V29.5586V30.0901Z" fill="#1565D8"/>
<path fill-rule="evenodd" clip-rule="evenodd" d="M43.7495 21.0436C43.3489 18.9402 41.5001 17.3501 39.28 17.3501H19.26C17.0121 17.3501 15.1448 18.9803 14.7761 21.123C15.0419 21.0367 15.3255 20.9901 15.62 20.9901H42.92C43.2012 20.9901 43.478 21.0083 43.7495 21.0436ZM42.92 37.3701H49.29V31.9101H42.92C41.4123 31.9101 40.19 33.1324 40.19 34.6401C40.19 36.1478 41.4123 37.3701 42.92 37.3701Z" fill="#B4CCEF"/>
</svg>
