<svg width="64" height="64" viewBox="0 0 64 64" fill="none" xmlns="http://www.w3.org/2000/svg">
<g opacity="0.06">
<rect width="64" height="64" rx="16" fill="#1565D8"/>
</g>
<path d="M37.5556 39.1427V46.2856C37.5556 47.6006 36.4896 48.6666 35.1746 48.6666H17.7143C16.3993 48.6666 15.3333 47.6006 15.3333 46.2856V28.8253C15.3333 27.5103 16.3993 26.4443 17.7143 26.4443H24.8571V35.1745C24.8571 37.3661 26.6338 39.1427 28.8254 39.1427H37.5556Z" fill="#B4CCEF"/>
<path d="M28.8254 15.3333H46.2857C47.6007 15.3333 48.6667 16.3992 48.6667 17.7142V35.1745C48.6667 36.4895 47.6007 37.5555 46.2857 37.5555H28.8254C27.5104 37.5555 26.4444 36.4895 26.4444 35.1745V17.7142C26.4444 16.3992 27.5104 15.3333 28.8254 15.3333Z" fill="#1565D8"/>
</svg>
