<svg width="72" height="72" viewBox="0 0 72 72" fill="none" xmlns="http://www.w3.org/2000/svg">
<rect opacity="0.1" width="72" height="72" rx="30.8027" fill="#F86398"/>
<rect x="17.9998" y="17.9988" width="36" height="36" rx="15.4014" fill="#F86398"/>
<g clip-path="url(#clip0)">
<path fill-rule="evenodd" clip-rule="evenodd" d="M35.9996 46.2663C35.9996 46.2663 27.9646 42.0627 27.9646 33.7674C27.9646 29.3299 31.5621 25.7324 35.9996 25.7324C40.4372 25.7324 44.0346 29.3299 44.0346 33.7674C44.0346 42.0627 35.9996 46.2663 35.9996 46.2663ZM35.9996 26.6252C32.0616 26.6252 28.8574 29.8294 28.8574 33.7674C28.8574 40.3552 34.4203 44.258 36.0009 45.2338C37.5829 44.262 43.1418 40.3762 43.1418 33.7674C43.1418 29.8294 39.9377 26.6252 35.9996 26.6252ZM35.9996 37.7849C33.7806 37.7849 31.9821 35.9864 31.9821 33.7674C31.9821 31.5484 33.7806 29.7499 35.9996 29.7499C38.2186 29.7499 40.0171 31.5484 40.0171 33.7674C40.0171 35.9864 38.2186 37.7849 35.9996 37.7849ZM35.9996 30.6427C34.2739 30.6427 32.8749 32.0417 32.8749 33.7674C32.8749 35.4932 34.2739 36.8922 35.9996 36.8922C37.7253 36.8922 39.1243 35.4932 39.1243 33.7674C39.1243 32.0417 37.7253 30.6427 35.9996 30.6427Z" fill="white"/>
</g>
<defs>
<clipPath id="clip0">
<rect width="21.4267" height="21.4267" fill="white" transform="translate(25.2861 25.2861)"/>
</clipPath>
</defs>
</svg>
