<svg width="72" height="72" viewBox="0 0 72 72" fill="none" xmlns="http://www.w3.org/2000/svg">
<rect opacity="0.1" width="72" height="72" rx="30.8027" fill="#F5B300"/>
<g clip-path="url(#clip0)">
<path d="M40.6776 52.5588C49.7996 50.1146 55.2129 40.7383 52.7687 31.6164C50.3245 22.4944 40.9483 17.0811 31.8263 19.5253C22.7044 21.9695 17.291 31.3457 19.7352 40.4677C22.1794 49.5896 31.5557 55.003 40.6776 52.5588Z" fill="#F5B300"/>
<path d="M29.5094 28.8021C30.1244 28.8048 30.7255 28.7554 31.3405 28.7582C31.9555 28.7609 32.5566 28.7115 33.1716 28.7143C33.3419 28.7245 33.38 28.6584 33.3902 28.4882C33.3613 27.5466 33.3464 26.6571 33.3174 25.7155C33.3276 25.5452 33.3658 25.4791 33.5361 25.4893C34.099 25.506 34.5958 25.4846 35.1448 25.4492C35.3151 25.4594 35.329 25.5115 35.3048 25.6297C35.3198 26.5192 35.3487 27.4608 35.3637 28.3503C35.3776 28.4024 35.3916 28.4545 35.3674 28.5727C35.8122 28.5652 36.309 28.5437 36.7538 28.5363C36.8059 28.5223 36.8301 28.4041 36.8682 28.3381C36.843 27.6188 36.8318 26.9517 36.8587 26.2185L36.8475 25.5514C36.8196 25.4472 36.8577 25.3811 36.9759 25.4053C37.5388 25.422 38.0877 25.3866 38.7028 25.3893C38.7549 25.3754 38.7688 25.4275 38.8209 25.4135C38.8461 26.1328 38.8573 26.7999 38.8686 27.467C38.8863 27.7415 38.904 28.016 38.8696 28.3044C38.8593 28.4747 38.9254 28.5128 39.0957 28.523L41.0245 28.8439C41.6293 29.0169 42.2099 29.308 42.7143 29.7314C43.3926 30.3873 43.6681 31.2069 43.683 32.0964C43.6803 32.7115 43.6115 33.2883 43.3064 33.8169C43.0775 34.2132 42.7165 34.5333 42.3416 34.8013C42.2895 34.8153 42.2513 34.8814 42.1471 34.9093C42.3974 35.0098 42.6338 35.0581 42.8841 35.1586C43.635 35.46 44.2053 35.9214 44.6092 36.595C44.867 37.1402 44.9824 37.7794 44.9797 38.3945C44.9667 39.1798 44.8737 39.8748 44.5584 40.5736C44.1667 41.4045 43.535 41.9647 42.7293 42.2923C41.677 42.7418 40.607 42.9168 39.5231 43.0397C39.3528 43.0295 39.2626 43.1095 39.2523 43.2798C39.2673 44.1692 39.2962 45.1108 39.3112 46.0003C39.3149 46.2227 39.3289 46.2748 39.0404 46.2404C38.5436 46.2619 37.9807 46.2452 37.4838 46.2666C37.3136 46.2564 37.2996 46.2043 37.3238 46.0861C37.2949 45.1445 37.2659 44.2029 37.3031 43.2995C37.2751 43.1953 37.3133 43.1292 37.1951 43.105C36.7504 43.1125 36.3056 43.12 35.8088 43.1414C35.8302 43.6383 35.7996 44.1491 35.821 44.6459C35.8424 45.1428 35.8118 45.6536 35.8332 46.1504C35.809 46.2686 35.823 46.3207 35.6527 46.3105C35.0898 46.2938 34.5409 46.3292 33.9919 46.3646C33.8216 46.3544 33.8077 46.3023 33.8319 46.1841C33.8029 45.2425 33.774 44.3009 33.8111 43.3975C33.7972 43.3454 33.8353 43.2793 33.8074 43.1751C32.5253 43.1836 31.2431 43.192 29.9089 43.2145C29.9572 42.9782 29.9675 42.8079 30.0158 42.5716C30.0986 42.0468 30.1814 41.522 30.226 41.0633C30.2362 40.893 30.2883 40.8791 30.4446 40.8372C30.8373 40.8437 31.282 40.8362 31.6607 40.7906C32.1054 40.7831 32.3622 40.4909 32.3166 40.1122C32.2819 37.2734 32.2472 34.4347 32.1465 31.5578C32.139 31.113 31.7529 30.7139 31.242 30.6832C30.7312 30.6526 30.2344 30.674 29.7896 30.6815C29.6854 30.7094 29.6194 30.6713 29.6435 30.5531C29.6463 29.9381 29.6351 29.271 29.6378 28.656C29.4713 28.8681 29.4713 28.8681 29.5094 28.8021ZM35.6151 40.9596C35.6672 40.9456 35.7332 40.9837 35.7332 40.9837C36.6227 40.9688 37.5783 40.9919 38.478 40.8067C39.1172 40.6913 39.6903 40.5377 40.2076 40.1757C41.1138 39.5979 41.1816 38.1836 40.3851 37.5035C40.0129 37.1565 39.5263 37.0076 39.0396 36.8588C37.9622 36.5891 36.8122 36.6739 35.7142 36.7447C35.544 36.7344 35.5579 36.7865 35.5477 36.9568C35.5831 37.5058 35.5525 38.0166 35.5879 38.5655C35.5749 39.3508 35.6141 40.1222 35.6151 40.9596ZM38.5677 34.4723C38.6719 34.4444 38.9185 34.3225 39.1129 34.2145C40.047 33.7408 40.2609 32.455 39.5026 31.7088C39.1164 31.3097 38.5637 31.1227 38.0389 31.04C37.2257 30.9228 36.4544 30.9619 35.617 30.9629C35.4467 30.9527 35.4086 31.0188 35.3984 31.189C35.431 32.353 35.4497 33.4649 35.4303 34.6428C35.4061 34.761 35.4722 34.7991 35.5903 34.8233C35.8127 34.8196 35.983 34.8298 36.2054 34.8261C37.0148 34.7208 37.7341 34.6957 38.5677 34.4723Z" fill="white"/>
</g>
<defs>
<clipPath id="clip0">
<rect width="34.5224" height="35.0618" fill="white" transform="translate(15.198 23.5342) rotate(-15)"/>
</clipPath>
</defs>
</svg>
