<svg width="72" height="72" viewBox="0 0 72 72" fill="none" xmlns="http://www.w3.org/2000/svg">
<rect opacity="0.1" width="72" height="72" rx="30.8027" fill="#27AAE2"/>
<rect x="18" y="18" width="36" height="36" rx="15.4014" fill="#27AAE2"/>
<g clip-path="url(#clip0)">
<path d="M37.875 42.5625H34.125C33.8662 42.5625 33.6562 42.7725 33.6562 43.0312C33.6562 43.29 33.8662 43.5 34.125 43.5H37.875C38.1337 43.5 38.3437 43.29 38.3437 43.0312C38.3437 42.7725 38.1337 42.5625 37.875 42.5625ZM37.875 44.4375H34.125C33.8662 44.4375 33.6562 44.6475 33.6562 44.9062C33.6562 45.165 33.8662 45.375 34.125 45.375H37.875C38.1337 45.375 38.3437 45.165 38.3437 44.9062C38.3437 44.6475 38.1337 44.4375 37.875 44.4375ZM38.1094 46.3125H33.8906L35.0044 47.0456C35.1487 47.175 35.3606 47.25 35.5809 47.25H36.42C36.6394 47.25 36.8522 47.175 36.9966 47.0456L38.1094 46.3125ZM41.625 33.3759C41.625 36.7219 38.6119 38.985 38.6119 41.625H36.7472C36.7444 39.8831 37.5628 38.4478 38.3606 37.0622C39.0741 35.82 39.75 34.6462 39.75 33.3759C39.75 30.9459 37.8047 29.8397 35.9972 29.8397C34.1925 29.8397 32.25 30.9459 32.25 33.3759C32.25 34.6462 32.9259 35.82 33.6394 37.0622C34.4372 38.4478 35.2566 39.8831 35.2519 41.625H33.3881C33.3881 38.985 30.375 36.7219 30.375 33.3759C30.375 29.8856 33.1856 27.9647 35.9972 27.9647C38.8106 27.9647 41.625 29.8875 41.625 33.3759ZM45.375 32.7281V34.0144H42.9956C43.0144 33.8053 43.0312 33.5944 43.0312 33.3759C43.0312 33.1538 43.0153 32.9409 42.9984 32.7291H45.375V32.7281ZM35.3925 26.5847V24.75H36.6778V26.5912C36.4509 26.5706 36.2241 26.5584 35.9972 26.5584C35.7956 26.5584 35.5941 26.5678 35.3925 26.5847ZM31.8834 27.7978L30.9084 25.9791L32.0409 25.3716L33.0131 27.1837C32.6212 27.3534 32.2425 27.5597 31.8834 27.7978ZM41.8078 29.4244L43.6284 28.1175L44.3775 29.1628L42.4519 30.5437C42.2728 30.1406 42.0553 29.7684 41.8078 29.4244ZM38.9859 27.1847L39.9591 25.3716L41.0916 25.9791L40.1156 27.7988C39.7575 27.5606 39.3787 27.3553 38.9859 27.1847ZM29.5472 30.5437L27.6216 29.1638L28.3706 28.1184L30.1912 29.4244C29.9437 29.7675 29.7272 30.1397 29.5472 30.5437ZM42.3975 36.3778L44.6044 37.2722L44.1225 38.4637L41.8491 37.5431C42.0459 37.1709 42.2316 36.7819 42.3975 36.3778ZM30.1087 37.4606L27.9 38.4544L27.3731 37.2816L29.5669 36.2953C29.7291 36.7013 29.9147 37.0875 30.1087 37.4606ZM29.0044 34.0144H26.625V32.7281H29.0016C28.9847 32.94 28.9687 33.1538 28.9687 33.3759C28.9687 33.5944 28.9856 33.8053 29.0044 34.0144Z" fill="white"/>
</g>
<defs>
<clipPath id="clip0">
<rect width="22.5" height="22.5" fill="white" transform="translate(24.75 24.75)"/>
</clipPath>
</defs>
</svg>
