<svg width="72" height="72" viewBox="0 0 72 72" fill="none" xmlns="http://www.w3.org/2000/svg">
<rect opacity="0.1" width="72" height="72" rx="30.8027" fill="#FFC300"/>
<rect x="17.9998" y="17.9989" width="36" height="36" rx="15.4014" fill="#FFC300"/>
<path d="M43.1421 28.8574H28.8576C28.6208 28.8574 28.3938 28.9515 28.2263 29.1189C28.0589 29.2863 27.9648 29.5134 27.9648 29.7502V32.4285C27.9648 32.6653 28.0589 32.8924 28.2263 33.0598C28.3938 33.2273 28.6208 33.3213 28.8576 33.3213C29.0944 33.3213 29.3215 33.2273 29.4889 33.0598C29.6563 32.8924 29.7504 32.6653 29.7504 32.4285V30.643H35.1071V42.2491H33.3215C33.0847 42.2491 32.8577 42.3432 32.6902 42.5106C32.5228 42.678 32.4287 42.9051 32.4287 43.1419C32.4287 43.3787 32.5228 43.6057 32.6902 43.7732C32.8577 43.9406 33.0847 44.0347 33.3215 44.0347H38.6782C38.915 44.0347 39.142 43.9406 39.3095 43.7732C39.4769 43.6057 39.571 43.3787 39.571 43.1419C39.571 42.9051 39.4769 42.678 39.3095 42.5106C39.142 42.3432 38.915 42.2491 38.6782 42.2491H36.8926V30.643H42.2493V32.4285C42.2493 32.6653 42.3434 32.8924 42.5108 33.0598C42.6782 33.2273 42.9053 33.3213 43.1421 33.3213C43.3789 33.3213 43.6059 33.2273 43.7734 33.0598C43.9408 32.8924 44.0349 32.6653 44.0349 32.4285V29.7502C44.0349 29.5134 43.9408 29.2863 43.7734 29.1189C43.6059 28.9515 43.3789 28.8574 43.1421 28.8574Z" fill="white"/>
</svg>
