<svg width="72" height="72" viewBox="0 0 72 72" fill="none" xmlns="http://www.w3.org/2000/svg">
<rect opacity="0.1" width="72" height="72" rx="30.8027" fill="#27AAE2"/>
<rect x="18" y="18.0007" width="36" height="36" rx="15.4014" fill="#27AAE2"/>
<g clip-path="url(#clip0)">
<path d="M34.125 39.75C34.125 38.715 34.965 37.875 36 37.875C37.035 37.875 37.875 38.715 37.875 39.75C37.875 40.4419 37.4963 41.04 36.9375 41.3653V43.5H35.0625V41.3653C34.5038 41.04 34.125 40.4419 34.125 39.75ZM44.4375 34.125V47.25H27.5625V34.125H30.375V30.375C30.375 27.2691 32.8941 24.75 36 24.75C39.1059 24.75 41.625 27.2691 41.625 30.375V34.125H44.4375ZM32.25 34.125H39.75V30.375C39.75 28.3069 38.0672 26.625 36 26.625C33.9328 26.625 32.25 28.3069 32.25 30.375V34.125ZM42.5625 36H29.4375V45.375H42.5625V36Z" fill="white"/>
</g>
<defs>
<clipPath id="clip0">
<rect width="22.5" height="22.5" fill="white" transform="translate(24.75 24.75)"/>
</clipPath>
</defs>
</svg>
