<svg width="72" height="72" viewBox="0 0 72 72" fill="none" xmlns="http://www.w3.org/2000/svg">
<rect opacity="0.1" width="72" height="72" rx="30.8027" fill="#7C80C3"/>
<rect x="17.9999" y="18.0009" width="36" height="36" rx="15.4014" fill="#5E63B6"/>
<path fill-rule="evenodd" clip-rule="evenodd" d="M35.9997 42.6973C35.2176 42.6973 34.4623 42.6063 33.7365 42.4516L30.5841 44.3465L30.6263 41.2403C28.2097 39.7873 26.6255 37.3849 26.6255 34.6623C26.6255 30.225 30.8225 26.6273 35.9997 26.6273C41.1769 26.6273 45.3738 30.225 45.3738 34.6623C45.3738 39.1003 41.1769 42.6973 35.9997 42.6973ZM35.9996 25.2882C30.0832 25.2882 25.2863 29.4858 25.2863 34.6624C25.2863 37.6213 26.8564 40.2561 29.3038 41.9736V46.7149L33.9969 43.8671C34.6464 43.9743 35.3146 44.0366 35.9996 44.0366C41.916 44.0366 46.7129 39.8396 46.7129 34.6624C46.7129 29.4858 41.916 25.2882 35.9996 25.2882ZM40.6867 32.6536H31.3125C30.9429 32.6536 30.6429 32.9535 30.6429 33.3231C30.6429 33.6934 30.9429 33.9927 31.3125 33.9927H40.6867C41.0563 33.9927 41.3563 33.6934 41.3563 33.3231C41.3563 32.9535 41.0563 32.6536 40.6867 32.6536ZM39.3476 36.6713H32.6517C32.2821 36.6713 31.9822 36.9706 31.9822 37.3408C31.9822 37.7111 32.2821 38.0104 32.6517 38.0104H39.3476C39.7172 38.0104 40.0172 37.7111 40.0172 37.3408C40.0172 36.9706 39.7172 36.6713 39.3476 36.6713Z" fill="white"/>
</svg>
