<svg width="72" height="72" viewBox="0 0 72 72" fill="none" xmlns="http://www.w3.org/2000/svg">
<rect opacity="0.1" width="72" height="72" rx="30.8027" fill="#27AAE2"/>
<rect x="17.9998" y="18.0009" width="36" height="36" rx="15.4014" fill="#27AAE2"/>
<g clip-path="url(#clip0)">
<path d="M45.375 29.4375V42.5625H26.625V29.4375H45.375ZM47.25 27.5625H24.75V44.4375H47.25V27.5625ZM37.875 40.3097V40.6875H28.5V40.2966C28.4962 39.2541 28.5412 38.6587 29.7413 38.3813C31.0566 38.0775 32.3541 37.8066 31.7306 36.6553C29.8809 33.2456 31.2028 31.3125 33.1875 31.3125C35.1347 31.3125 36.4884 33.1734 34.6462 36.6553C34.0397 37.7991 35.2913 38.0709 36.6347 38.3813C37.8384 38.6597 37.8797 39.2587 37.875 40.3097ZM43.5 31.3125H39.75V33.1875H43.5V31.3125ZM43.5 35.0625H39.75V36.9375H43.5V35.0625ZM43.5 38.8125H39.75V40.6875H43.5V38.8125Z" fill="white"/>
</g>
<defs>
<clipPath id="clip0">
<rect width="22.5" height="22.5" fill="white" transform="translate(24.75 24.75)"/>
</clipPath>
</defs>
</svg>
