<svg width="72" height="72" viewBox="0 0 72 72" fill="none" xmlns="http://www.w3.org/2000/svg">
<rect opacity="0.1" width="72" height="72" rx="30.8027" fill="#54CF60"/>
<g clip-path="url(#clip0)">
<path d="M48.3455 23.564C45.0697 20.2802 40.7139 18.4708 36.073 18.4688C26.5099 18.4688 18.7274 26.2623 18.7235 35.8418C18.7224 38.9039 19.5211 41.8929 21.0392 44.5277L18.5779 53.5306L27.775 51.1148C30.309 52.4991 33.1621 53.2286 36.0656 53.2298H36.0729H36.073C45.6346 53.2298 53.4183 45.4348 53.4224 35.8559C53.424 31.2132 51.6209 26.848 48.3455 23.564ZM36.073 50.2954H36.0674C33.4794 50.294 30.9416 49.598 28.728 48.2822L28.2012 47.9694L22.7434 49.4028L24.2005 44.0742L23.8573 43.5279C22.4137 41.2285 21.6516 38.5714 21.6527 35.8429C21.6559 27.8808 28.1244 21.4032 36.0785 21.4032C39.9303 21.4048 43.5505 22.9088 46.2732 25.6382C48.9958 28.3676 50.4941 31.9959 50.4929 35.8546C50.4896 43.817 44.0208 50.2954 36.073 50.2954Z" fill="#E0E0E0"/>
<path d="M19.3748 52.5316L21.7237 43.94C20.2745 41.4256 19.5125 38.5728 19.5134 35.6512C19.5172 26.5095 26.9442 19.0721 36.0698 19.0721C40.4988 19.0741 44.6558 20.8008 47.7812 23.9347C50.9074 27.0685 52.6279 31.2341 52.6261 35.6641C52.6223 44.806 45.1948 52.2441 36.0704 52.2441C36.0698 52.2441 36.0709 52.2441 36.0704 52.2441H36.0631C33.2923 52.2432 30.5697 51.5464 28.1516 50.2262L19.3748 52.5316Z" fill="url(#paint0_linear)"/>
<path fill-rule="evenodd" clip-rule="evenodd" d="M31.7861 28.4661C31.4651 27.7513 31.1271 27.7369 30.8218 27.7244C30.572 27.7137 30.286 27.7144 30.0006 27.7144C29.7148 27.7144 29.2506 27.8219 28.8579 28.2515C28.4651 28.681 27.3579 29.7194 27.3579 31.8314C27.3579 33.9436 28.8936 35.9844 29.1077 36.2711C29.322 36.5573 32.0722 41.0299 36.4278 42.7505C40.0477 44.1805 40.7843 43.896 41.5701 43.8245C42.3558 43.7529 44.1053 42.7863 44.4625 41.7839C44.8196 40.7816 44.8196 39.9226 44.7125 39.743C44.6053 39.5641 44.3196 39.4568 43.891 39.2421C43.4625 39.0275 41.3558 37.9888 40.9629 37.8457C40.5701 37.7026 40.2843 37.631 39.9986 38.0608C39.7129 38.4901 38.8921 39.4568 38.6421 39.743C38.3921 40.0299 38.1421 40.0656 37.7135 39.851C37.285 39.6357 35.9048 39.1828 34.2676 37.7205C32.9937 36.5827 32.1336 35.1776 31.8836 34.7478C31.6336 34.3185 31.8568 34.086 32.0718 33.872C32.2642 33.6797 32.5003 33.3709 32.7146 33.1202C32.9285 32.8695 32.9999 32.6906 33.1427 32.4044C33.2856 32.1178 33.2142 31.8671 33.107 31.6525C32.9999 31.4378 32.1671 29.3149 31.7861 28.4661Z" fill="white"/>
<path d="M48.2042 23.5089C44.966 20.2628 40.6602 18.4742 36.0727 18.4722C26.6192 18.4722 18.9261 26.1763 18.9223 35.6458C18.9212 38.6727 19.7107 41.6275 21.2114 44.232L18.7783 53.1315L27.8699 50.7434C30.3748 52.1118 33.1952 52.833 36.0653 52.8341H36.0726H36.0727C45.5245 52.8341 53.2188 45.1286 53.2228 35.6596C53.2244 31.0703 51.442 26.7552 48.2042 23.5089ZM36.0727 49.9335H36.0671C33.5088 49.9322 31.0001 49.2441 28.8119 47.9434L28.2911 47.6342L22.896 49.0512L24.3364 43.7837L23.9971 43.2437C22.5701 40.9707 21.8167 38.344 21.8179 35.6469C21.821 27.7762 28.2152 21.373 36.078 21.373C39.8857 21.3746 43.4643 22.8613 46.1558 25.5594C48.8471 28.2574 50.3282 31.844 50.327 35.6585C50.3237 43.5294 43.9292 49.9335 36.0727 49.9335Z" fill="white"/>
</g>
<defs>
<linearGradient id="paint0_linear" x1="36.0005" y1="52.5316" x2="36.0005" y2="19.0722" gradientUnits="userSpaceOnUse">
<stop stop-color="#20B038"/>
<stop offset="1" stop-color="#60D66A"/>
</linearGradient>
<clipPath id="clip0">
<rect width="34.8467" height="35.0618" fill="white" transform="translate(18.5771 18.4688)"/>
</clipPath>
</defs>
</svg>
