<svg width="72" height="72" viewBox="0 0 72 72" fill="none" xmlns="http://www.w3.org/2000/svg">
<rect opacity="0.1" width="72" height="72" rx="30.8027" fill="#CD201F"/>
<path d="M42.4502 35.6024C38.89 33.6998 35.4811 31.9507 31.9966 30.1245V41.0492C35.6634 39.0559 39.5283 37.2304 42.4653 35.6024H42.4502Z" fill="white"/>
<path d="M32.6666 49.6009C25.2718 49.4648 22.7462 49.3423 21.1937 49.0224C20.1434 48.8099 19.2306 48.3381 18.5614 47.6537C18.0442 47.1357 17.6328 46.3455 17.3137 45.249C17.0399 44.3356 16.9333 43.5756 16.7813 41.7191C16.5486 37.5293 16.4932 34.1039 16.7813 30.2764C17.019 28.1628 17.1343 25.6537 18.7134 24.1898C19.459 23.5048 20.3264 23.0639 21.3003 22.8816C22.8218 22.5927 29.3039 22.3644 36.0143 22.3644C42.7096 22.3644 49.2061 22.5927 50.729 22.8816C51.9457 23.11 53.0868 23.7944 53.7568 24.6768C55.1976 26.9432 55.2228 29.7614 55.369 31.9657C55.4296 33.0161 55.4296 38.9802 55.369 40.0305C55.1414 43.5143 54.9584 44.7469 54.4412 46.0249C54.1213 46.8317 53.8483 47.2575 53.3757 47.7293C52.6346 48.4555 51.6897 48.9384 50.667 49.1139C44.2678 49.5951 38.8339 49.6996 32.6666 49.6009ZM42.4661 35.6023C38.906 33.6997 35.4971 31.9355 32.0125 30.1093V41.0347C35.6793 39.0414 39.5449 37.2152 42.4813 35.5871L42.4661 35.6023Z" fill="#CD201F"/>
</svg>
